<svg version="1.0" xmlns="http://www.w3.org/2000/svg" width="1900" height="400" viewBox="0 0 1408 294" preserveAspectRatio="xMidYMid meet"><path d="M693.3 6c-4 .8-12.3 4.1-15.3 6-.8.6-2.4 1.4-3.5 1.9-3.8 1.7-11.3 10.7-12 14.5-.4 2-1.1 3.9-1.6 4.2-1.5.9-1 13.9.6 17 .8 1.6 1.5 3.7 1.5 4.6 0 .9.4 1.9.9 2.3.6.3 2 2.5 3.2 4.9 1.2 2.4 5.5 7.7 9.5 11.7 4.1 4.1 7.4 8.1 7.4 9 0 1.8-6 5.9-8.8 5.9-.9 0-2.6.7-3.6 1.5-1.1.8-2.6 1.5-3.4 1.5-.8 0-3.3.8-5.6 1.9-2.3 1-7 3.1-10.6 4.6-3.6 1.5-7.8 3.3-9.5 4.1-1.6.7-5 1.8-7.5 2.5s-4.9 1.6-5.4 2.1c-.6.4-1.8.8-2.7.8-.9 0-3 .7-4.5 1.5-1.6.8-3.9 1.5-5 1.5-1.2 0-2.7.7-3.4 1.5-.7.8-2.3 1.5-3.6 1.5-1.2 0-2.5.4-2.8.9-.4.5-2.5 1.2-4.8 1.6-2.4.4-5.3 1.5-6.7 2.3-3.3 2.2-12.4 2.2-14.9-.1-1-.9-2.5-1.7-3.3-1.8-.8 0-3.4-1.1-5.9-2.4-7.4-3.8-13.2-6.5-14.2-6.5-.6 0-3.6-1.3-6.7-2.9-3.1-1.5-8.3-3.8-11.6-5-9-3.4-13.6-5.2-18.1-7.2-2.2-1.1-4.8-1.9-5.7-1.9-.9 0-1.9-.5-2.2-1-.3-.6-1.7-1-3-1s-2.6-.4-2.9-.9c-.3-.5-1.8-1.2-3.3-1.5-1.6-.4-4.1-1.3-5.8-2.1-3.7-1.6-13.2-4.5-15.2-4.5-.8 0-2.4-.6-3.6-1.2-1.2-.7-4.2-1.8-6.7-2.5-2.5-.6-6.1-1.6-8-2.2-1.9-.5-6.6-1.7-10.5-2.6-3.8-.9-7.9-2-9-2.4-2.2-.9-13.6-3.8-20.5-5.1-2.5-.5-6.7-1.4-9.5-1.9-2.7-.5-6.9-1-9.2-1-2.3-.1-5.4-.7-7-1.5-1.5-.8-7.3-2-12.8-2.6-20.1-2.3-24.1-2.8-28.5-3.9-6.5-1.7-72.4-2.6-88.3-1.3-7.1.6-13.4 1.5-14 2-.7.5-3.4 1.2-6.2 1.6-2.7.3-6.4.8-8.1 1.2-2.9.5-3.8-.1-10.7-6.8-4.2-4-9.8-8.9-12.4-10.8-2.7-1.9-5-3.8-5.3-4.1-.3-.3-1.8-1.2-3.5-2.1-1.6-.8-7-3.6-12-6.2-4.9-2.5-9.7-4.6-10.5-4.6-.9 0-2.7-.8-4-1.8-2.2-1.5-8.4-3.2-17.5-4.8-1.6-.3-3.9-.9-5-1.4-6.1-2.6-37.9-3.4-49-1.2-3.3.6-8 1.5-10.5 2-2.5.4-5.5 1.4-6.7 2-1.2.7-3 1.2-4 1.2s-3.1.7-4.7 1.5c-1.5.8-3.2 1.5-3.7 1.5-1.5 0-17.3 7.8-21.3 10.5-2 1.4-3.9 2.5-4.2 2.5-.7 0-7.7 5.3-11.8 9-12.9 11.7-21 21.7-26.3 32.5-1.9 3.8-4.1 8.1-4.9 9.5-.7 1.4-1.4 3.3-1.4 4.2 0 .9-.4 2-1 2.3-.5.3-1 1.5-1 2.6s-.6 3-1.4 4.2c-.8 1.2-1.7 4.9-2.1 8.2-.4 3.3-1.6 9.6-2.7 14-1.6 6.5-1.9 10.1-1.5 20 .3 6.6 1 14.2 1.6 17 .5 2.7 1.5 7.9 2.1 11.5.6 3.6 1.7 8.1 2.5 10 .7 1.9 2.2 6.2 3.1 9.5 1.7 5.7 8 19.4 9.5 20.5.3.3 1.5 2.1 2.5 4 3.3 6.1 10.9 15.3 19.5 23.4 10.8 10 11.4 10.6 12.3 10.6.8 0 9.8 5.9 10.6 7 .3.4 3 1.9 6 3.3 3 1.5 6.2 3.1 7 3.6 3.8 2.5 21 10 24.3 10.6 2 .4 4 1.1 4.3 1.6.3.5 1.4.9 2.6.9 1.1 0 3.2.6 4.6 1.4 4.3 2.2 20.6 6.6 24.5 6.6 1.4 0 2.9.4 3.2 1 .3.5 3 1 5.9 1 2.8 0 5.8.6 6.5 1.2 1.7 1.8 116.1 1.9 118.2.1.8-.6 5-1.4 9.4-1.7 4.4-.2 11.2-1 15-1.6 3.9-.6 9.9-1.5 13.5-2 3.6-.5 9.2-1.4 12.5-1.9 3.3-.6 8.9-1.5 12.5-2.1 3.6-.5 9-1.5 12-2.1 3-.5 9.3-1.6 14-2.3 4.7-.7 9.4-1.7 10.5-2.3 1.1-.6 4.9-1.6 8.5-2.2 8.6-1.5 14.5-2.7 20-4.1 2.5-.6 6-1.4 7.8-1.7 1.8-.3 3.5-.9 3.8-1.4.3-.5 2.3-.9 4.4-.9 2.1 0 4.1-.4 4.5-.9.3-.5 3.1-1.3 6.3-1.7 3.1-.3 6.8-1.2 8.2-2 1.4-.7 4.5-1.7 7-2.3 2.5-.5 7-1.7 10-2.6 3-.9 7.5-2.1 10-2.6 2.5-.6 5.4-1.4 6.5-1.8 2.2-.9 4.3-1.6 18-5.6 5-1.4 10.6-3.2 12.5-4 5.8-2.1 14.5-4.5 16.7-4.5 1.1 0 2.6-.7 3.3-1.5.7-.8 2-1.5 2.8-1.5 2 0 19.1-5.6 24.7-8 2.2-1 5.8-2.3 8-3 2.2-.7 6.1-2.1 8.7-3.1 2.6-1.1 5.5-1.9 6.5-1.9s2.6-.7 3.7-1.5c1-.7 4.4-2.1 7.5-3 3.1-.9 6.7-2.3 8.1-3 3.5-1.9 11.2-4.5 13.1-4.5.9 0 2.2-.7 2.9-1.5.7-.8 2.5-1.5 4-1.5s3.3-.6 3.9-1.4c.7-.8 2.7-1.8 4.4-2.2 1.8-.3 3.7-1 4.2-1.4.6-.4 3.6-1.7 6.7-2.8 3.2-1.2 6.6-2.6 7.5-3.1 4.3-2.1 9.5-4.1 10.9-4.1.8 0 3.2-.9 5.2-1.9 8.8-4.5 8.9-4.6 12.7-2.5 1.9 1 3.5 2.2 3.5 2.6 0 .4 1.5 1.4 3.3 2.2 1.9.7 4.9 2.7 6.8 4.3 1.9 1.6 5.9 4.5 9 6.5 3 2 6.1 4.4 6.8 5.2.8.9 1.8 1.6 2.4 1.6.5 0 2.6 1.5 4.7 3.4 2 1.8 4.3 3.5 5 3.8 1.9.6.5 3.7-2.2 4.7-3.3 1.3-11 5-13.3 6.4-1.1.7-4.3 2.5-7 4.1-15.9 9.4-24 24-21.9 39.8.6 4.6 1.4 5.9 6.9 11.5 3.4 3.5 7 6.3 7.9 6.3.9 0 3.1.8 4.9 1.7 4.7 2.4 10.1 3.5 20.2 4 9.4.5 12.9-.2 22-4.3 6.3-2.8 10.3-7 15-15.8 3.4-6.4 3.7-7.5 3.8-16.1.1-6.8-.3-10.1-1.5-12.6-.9-1.9-1.9-4.1-2.3-4.9-.6-1.5-1.6-3.3-4.9-8.5-1.1-1.7-4-5.1-6.5-7.8-5.1-5.3-5-7.4.5-9.1 1.6-.5 4.1-1.5 5.6-2.2 3.7-2 17.1-7.4 18.2-7.4.5 0 3.8-1.4 7.3-3 3.4-1.7 6.9-3 7.6-3 .6 0 2.1-.7 3.1-1.5 1.1-.8 2.8-1.5 3.7-1.5.9 0 4.7-1.4 8.4-3 3.7-1.7 7.7-3 8.9-3 1.2 0 3-.6 4.1-1.3 3.4-2.3 22.6-8.7 26.2-8.7 2.8 0 15.1 5.2 18.8 7.9.5.4 3.3 1.6 6 2.5 5.4 2 9.4 3.7 19.6 8.5 3.7 1.7 7.3 3.1 8.2 3.1.8 0 2 .6 2.6 1.4.7.8 2.8 1.7 4.9 2.1 2 .4 4.2 1 4.7 1.5 1.6 1.3 11.8 5 13.8 5 .9 0 1.7.4 1.7.9s1.5 1.3 3.2 1.7c1.8.3 4.9 1.3 6.8 2.2 6.3 2.7 7.5 3.1 11 3.8 1.9.3 4.6 1.2 6 1.9 1.4.7 4.7 1.6 7.3 2 2.6.4 5 1.1 5.3 1.6.3.5 1.5.9 2.8.9 1.2 0 2.7.5 3.3 1.1 1 1 10.1 3.4 17.3 4.6 1.9.3 4 .9 4.5 1.3.6.5 3.3 1.1 6 1.5 2.8.4 6.4 1.3 8 2 2.8 1.3 9 2.6 19.5 4.3 2.5.4 5.2 1.2 6 1.7.8.5 5.8 1.5 11 2.3 5.2.7 12.2 1.7 15.5 2.3 12.6 2.1 21.4 3 32 3.5 6.1.3 11.4.9 12 1.5 1.2 1.2 63.8 1.2 65 0 .6-.5 4.2-1.2 8-1.4 7.1-.5 14.6-1.8 17.8-3.2 1.3-.6 3.8 1.3 11 8.3 8.8 8.6 15.4 13.7 24.3 18.7 4.9 2.7 20.8 9.1 24.9 10 1.7.4 3.9 1 5 1.5 2.1.9 5.5 1.5 20 3.1 11.3 1.3 11.7 1.3 25 0 20.8-2 23.5-2.3 23.5-3.1 0-.4 2.8-1 6.2-1.4 3.4-.3 7.1-1.2 8.2-2 1.2-.7 3.5-1.5 5.1-1.8 1.7-.3 4.6-1.2 6.5-1.9 4.5-1.7 24.3-11.2 25-12 .3-.4 1.9-1.5 3.7-2.6 5.2-3.1 15.2-11.7 15.2-13.1.1-.6.9-2 1.9-3 2.9-2.9 6.6-8.4 8.8-13.3 1.2-2.6 2.7-5 3.3-5.3.5-.4 1.5-2.1 2-3.9.5-1.8 2.1-6.3 3.5-10.1s2.6-8 2.6-9.3c0-1.3.7-3.4 1.5-4.6 1.6-2.6 3.7-23.3 3.7-37.7 0-13.1-2-32.1-3.6-34-.7-.8-1.6-3.7-2-6.5-.3-2.7-1.1-5.4-1.6-5.9-.6-.6-1-1.9-1-3.1 0-1.2-.7-3-1.5-4.1-.8-1-1.5-2.7-1.5-3.6 0-1.9-5.4-12.4-7.6-14.9-.8-.8-1.4-2-1.4-2.6 0-.5-.9-1.8-2-2.8-1.1-1-2-2.2-2-2.7 0-2.9-17.6-21.9-27.3-29.3-3.1-2.5-5.9-4.5-6.1-4.5-.3 0-3.1-1.7-6.3-3.8-6.5-4.4-13-7.5-25.3-12.2-4.7-1.9-8.9-3.7-9.5-4-.5-.4-3-1-5.5-1.4-2.4-.4-4.9-1.1-5.5-1.6-1.8-1.5-29.5-7.1-42-8.6-2.7-.3-5.9-.9-7-1.4-2.2-1-8.1-1.4-40.8-2.9-28.1-1.3-70.9.4-96.2 3.9-4.4.6-11.4 1.5-15.5 2.1-4.1.5-10 1.2-13 1.5-3 .3-5.9 1-6.5 1.4-.5.5-5.3 1.1-10.5 1.5-5.2.4-10.1 1.2-10.8 1.8-.7.6-5 1.6-9.5 2.3-10.2 1.6-15.6 2.7-23.2 4.8-3.2.9-7.2 1.6-8.7 1.6-1.6 0-3.6.4-4.6.9-1.8 1-13.5 3.9-18.7 4.8-1.6.2-3.7.7-4.5 1.1-.8.3-4 1.1-7 1.8-8.2 1.9-14.3 3.5-16.1 4.4-.9.5-3.8 1.2-6.5 1.5-2.7.4-5.4 1.1-6 1.6-.5.4-3.7 1.6-7 2.4-3.2.9-7.2 2.1-8.9 2.5-1.6.5-5 1.4-7.5 2.1-2.5.6-5.2 1.5-6 2-1.9 1.2-2.5 1.4-8 2.8-7.6 2-10.1 2.8-22.5 7.5-6.6 2.5-13 4.5-14.2 4.6-1.3 0-2.3.4-2.3 1 0 .5-1 1-2.2 1-1.3 0-3.6.9-5.3 2-1.6 1.1-4 2-5.2 2-1.2 0-2.5.4-2.8 1-.3.5-1.4 1-2.3 1-1 0-3.4.9-5.5 2-2 1.1-4.5 2-5.4 2-1 0-2.7.7-3.7 1.5-1.1.8-2.8 1.5-3.7 1.5-1 0-3.1.7-4.8 1.5-1.7.8-4.5 2.2-6.2 3-1.7.8-3.8 1.5-4.8 1.5-.9 0-2.6.7-3.7 1.5-1 .8-3 1.5-4.2 1.5-1.3 0-3.5.9-4.9 2-1.4 1.1-3.6 2-4.9 2-1.2 0-2.5.4-2.8.9-.3.4-2.7 1.6-5.3 2.5-2.6.9-6.1 2.3-7.8 3.1-6.1 2.7-21.1 8.5-22.1 8.5-.7 0-1.7.7-2.4 1.5s-2.2 1.5-3.4 1.5c-1.1 0-3 .7-4 1.5-2.6 1.9-7 1.9-8.6 0-.7-.8-1.8-1.5-2.5-1.5s-1.9-.7-2.6-1.6c-.7-.9-2.2-2-3.4-2.5-2-.9-9-5.8-19.7-13.7-3.1-2.3-6-4.2-6.3-4.2-1.4 0-5.6-5.5-5.3-6.9.2-.9 1.4-1.8 2.8-1.9 1.3-.2 3.7-1.4 5.2-2.7 1.5-1.3 3.8-2.7 5-3.1 1.3-.4 3.4-1.5 4.8-2.6 1.4-1 3.8-2.9 5.5-4.1 12.4-9.1 20.9-23.8 19.1-32.9-.4-1.8-.9-4.7-1.3-6.5-.6-3.6-11.5-16.3-13.9-16.3-.8 0-1.4-.4-1.4-.9 0-1-6.2-4-12.1-5.9-4.9-1.6-17.5-2.3-22.6-1.2zm536.3 9.9c.5.6 5.6 1.2 11.4 1.4 5.8.3 13.2 1 16.5 1.6 3.3.6 8.3 1.5 11 2.1 2.8.5 7.7 1.4 11 2 3.3.5 6.9 1.4 8 1.9 1.1.5 5.2 1.9 9 3.1 3.9 1.2 8.8 3.1 11.1 4.1 2.2 1 4.5 1.9 5.2 1.9 1.2 0 9.6 4.4 12.2 6.4.8.7 3.7 2.2 6.4 3.5 5.3 2.6 6.3 3.4 16.5 12.4 6.9 6.3 20.1 20.6 20.1 21.9 0 .5 1.4 2.7 3 5 1.7 2.2 3 4.5 3 4.9 0 .4 1.4 2.8 3 5.2 1.7 2.5 3 4.8 3 5.2 0 .4 1.5 4.7 3.4 9.4 4.5 11.3 5.5 17.8 5.6 33.6 0 15-1.3 26.5-4 33-.4 1.1-1.7 4.7-2.8 8-3.4 10.3-5.3 14.9-6.8 16.6-.8.8-1.4 2.1-1.4 2.7 0 .6-1.3 3.1-3 5.5-1.6 2.5-3 4.9-3 5.5 0 .5-.7 1.2-1.5 1.6-.8.3-1.5 1.2-1.5 1.9 0 1.7-20.6 22.7-22.2 22.7-.6 0-1.8.7-2.7 1.5-6.1 6-27.6 17.9-39.6 22-2.7.9-5.9 2.2-7 2.8-3.4 1.8-14.5 3.8-25.1 4.6-17.2 1.3-37.7-.8-44.9-4.6-1.1-.6-4.5-1.8-7.5-2.8-9.9-3.1-27.4-15.6-32.5-23.2-1.5-2.2-1.3-2.3 6.2-5.8 4.3-1.9 8.5-4 9.3-4.5.8-.6 2.6-1.5 4-2.1 1.4-.6 3.9-2.1 5.7-3.5 1.7-1.3 3.5-2.4 3.9-2.4 1.9 0 16.4-13.6 22.9-21.6 4-4.9 8.9-14.9 12.7-25.9 3-8.5 3.1-9.9 3.2-24.1.1-10.7-.3-15.9-1.3-18-.7-1.6-2-4.5-2.9-6.4-2.5-5.5-14.4-16.6-21-19.6-3.1-1.5-6.8-3.2-8.1-3.8-3.1-1.4-23.3-1.5-25.2 0-.8.6-2.5 1.4-3.9 1.7-5.6 1.4-23 15.4-23 18.5 0 .6-.7 1.7-1.5 2.5-2.4 2.4-10.5 20.1-11.2 24.3-.3 2.1-1.2 5.2-2 6.7-1 2.1-1.4 7-1.4 18.6 0 15.1.5 20.4 2.1 22.6.4.5 1.1 2.9 1.5 5.2.4 2.4 1.8 6.5 3.1 9.3 3.7 7.7 3 10-3 10-1.2 0-2.6.4-3.2 1-.5.5-5.7 1.2-11.4 1.6-5.8.3-11.4 1.2-12.5 1.9-5.9 3.7-87 3.7-92.5 0-.8-.6-6.7-1.5-13-2.2-12.2-1.3-20.4-2.5-28.5-4.3-2.7-.5-7-1.3-9.5-1.6-2.5-.4-4.9-1-5.5-1.4-.5-.4-3.9-1.1-7.5-1.5-6.1-.6-15-2.7-19.5-4.6-1.1-.4-4.5-1.1-7.5-1.5-3-.3-6.2-1.2-7-1.9-.8-.7-4-1.5-7-1.9-3-.3-7.8-1.4-10.6-2.5-2.9-1-7.5-2.4-10.3-3.1-2.8-.6-5.4-1.6-5.7-2.1-.3-.5-1.8-.9-3.3-.9-1.6 0-3.4-.7-4.1-1.5-.7-.8-2.5-1.5-4-1.5s-3.3-.7-4-1.5c-.7-.8-2.2-1.5-3.4-1.5-1.2 0-3.1-.7-4.2-1.5-1-.8-2.6-1.5-3.5-1.5-1 0-4.4-1.4-7.7-3-3.4-1.7-6.4-3-6.9-3-.4 0-4.8-2-9.8-4.4-4.9-2.4-10.1-4.7-11.5-5.1-2.7-.8-6-3.3-6-4.6 0-1.2 5.1-3.3 18-7.5 6.3-2 12.4-4.1 13.5-4.6 1.1-.4 4.5-1.5 7.5-2.4 3-.8 6.9-1.9 8.5-2.4 1.7-.5 5.7-1.6 9-2.5 3.3-.9 6.7-1.9 7.6-2.4.8-.5 4.9-1.6 9-2.6 4-.9 8.8-2.3 10.4-3 1.7-.8 5-1.7 7.5-2.1 2.5-.3 5.4-.9 6.5-1.4 1.1-.5 3.1-1.1 4.5-1.4 1.4-.3 5.2-1.2 8.5-2 3.3-.9 7.6-1.6 9.6-1.6 1.9 0 4-.5 4.6-1.1 2.6-2.6 35.3.7 38.6 4 .6.6 1.9 1.1 2.9 1.1 2.1 0 19.9 11.5 21.1 13.6.4.8 1.3 1.4 1.9 1.4.6 0 2.8 1.5 4.8 3.2 3.4 3 9.2 7.7 18.3 14.9 3.5 2.8 17.8 9.9 19.9 9.9.8 0 2.4.7 3.6 1.6 3.2 2.2 22.7 2.2 27 0 5.6-2.9 10.5-6.6 11.8-8.9 5.2-9 5.4-9.9 5.4-20.1 0-8.5-.4-10.8-2.3-14.5-2.4-4.8-3.4-5.6-5.6-4.2-1 .7-1.2 1.3-.5 2.3 1.3 1.7 3.3 10.2 3.6 15.5.3 5.6-4.6 15.3-7.8 15.3-1.2 0-2.7.7-3.4 1.5-.8 1-3 1.5-6.4 1.5-4.2 0-6.9-.9-14.1-4.6-5-2.5-9.2-5-9.3-5.5-.2-.5-1.7-1.6-3.2-2.4-1.6-.8-5-3.3-7.7-5.6-6.6-5.6-8.2-6.9-12.8-10.3-2.2-1.7-4.2-3.2-4.5-3.5-3.1-3.4-21.6-13.2-27-14.3-18.3-3.7-37.8-3-62 2.1-3 .7-6.8 1.4-8.3 1.6-1.6.2-3.4.8-4 1.3-.7.5-2.8 1.2-4.7 1.5-6.6 1-16 3.4-17.2 4.5-.7.5-3.7 1.3-6.6 1.7-3 .4-8 1.7-11.2 3-3.2 1.3-7.8 2.6-10.2 3-2.3.4-4.9 1.1-5.8 1.6-.8.4-4.6 1.7-8.5 3-3.8 1.2-7.9 2.5-9 3-1.1.4-3.6 1.2-5.5 1.8-1.9.5-6.6 2.1-10.5 3.5-3.8 1.4-7.9 2.6-9 2.6-1.2 0-2.6.5-3.3 1.2-1.2 1.2-8.4 3.6-13.7 4.5-3.1.5-10.5-2.9-10.5-4.8 0-.5-.7-.9-1.6-.9-1.9 0-17.6-8.2-21.3-11.1-1.3-1.1-2.9-1.9-3.5-1.9-.6 0-2.9-1.4-5-3-2.2-1.7-4.5-3-5.1-3-.6 0-2.2-1.1-3.4-2.4l-2.2-2.4 2.6-2c1.4-1.1 5.7-3 9.5-4.2 3.9-1.2 7.2-2.6 7.5-3.1.4-.5 1.8-.9 3.2-.9 1.3 0 3.6-.9 5-2s3.2-2 3.9-2c.7 0 3.8-1.1 6.8-2.5s5.9-2.5 6.5-2.5c.5 0 2.2-.6 3.8-1.4 5.6-2.8 10.4-4.6 12.2-4.6 1 0 2.4-.7 3.1-1.5.7-.8 2.7-1.7 4.6-2.1 1.9-.3 3.7-1 4-1.5.3-.5 1.5-.9 2.8-.9 1.2 0 3.1-.7 4.2-1.5 1-.8 2.5-1.5 3.2-1.5 1.2 0 8.9-3.1 12.2-4.9.9-.5 3.1-1.2 5-1.6 1.9-.4 4-1.1 4.5-1.5 1.1-.9 13.7-5.5 19.5-7.2 1.9-.6 4-1.4 4.5-1.8 1.3-1 14-5 15.8-5 .8 0 2-.7 2.7-1.5.7-.8 2.5-1.5 4.1-1.5 1.5 0 3.4-.7 4.3-1.5.8-.8 1.9-1.5 2.5-1.5.9 0 38.4-12 43.6-13.9 1.1-.5 5.4-1.8 9.5-3.1 4.1-1.2 8.4-2.6 9.5-3.1 1.1-.4 4-1.1 6.5-1.5 2.5-.3 5.4-1.3 6.5-2 1.1-.8 3.4-1.4 5.2-1.4 1.7 0 3.4-.4 3.8-.9.3-.5 3.1-1.3 6.3-1.7 3.1-.3 6.8-1.2 8.2-2 1.4-.7 5-1.7 8-2.3 3-.5 7.5-1.5 10-2.1 2.5-.6 8-1.7 12.3-2.4 4.3-.7 8.3-1.8 8.9-2.4.7-.7 3.1-1.2 5.4-1.2 2.4 0 4.6-.4 4.9-1 .3-.5 2-.9 3.8-.9 3.7.2 15.5-1.9 17.1-2.9.6-.4 6.1-1.3 12.1-2 6.1-.7 14.2-1.7 18-2.3 18.7-2.6 22.7-3.1 32-3.5 5.5-.3 10.4-1 11-1.5 1.2-1.2 56.8-1.2 58.1 0zm-510.2 2.3c2.2.6 5.4 2.2 6.9 3.5 1.6 1.3 3.2 2.3 3.5 2.3.4 0 1.9 2 3.5 4.4 2.2 3.6 2.7 5.4 2.7 10.9 0 5.7-.4 7.4-3.2 11.9-1.8 2.9-4.2 6.3-5.3 7.5-2.6 2.8-24.4 17.3-26 17.3-.7 0-1.8.7-2.5 1.5-2.1 2.6-5.4 1.7-9.8-2.7-2.3-2.2-4.2-4.5-4.2-4.9 0-.4-1.5-3-3.2-5.6-3.2-4.7-3.3-5-3.3-15.8 0-8.4.4-11.7 1.7-14 2.8-5.1 11.5-12.9 17-15.2 6-2.5 15.6-3 22.2-1.1zm-562 7.3c1.1.8 4 1.5 6.4 1.5 5 0 16.4 2.6 20.4 4.6 1.4.8 3.5 1.4 4.6 1.4 2.5 0 16.5 6.1 17.4 7.6.4.6 2 1.5 3.5 1.9 2.9.7 17.3 14.1 17.3 16.1 0 .7-1.7 1.6-3.7 1.9-2.1.3-5.7 1.5-8.1 2.6-2.3 1-4.8 1.9-5.5 1.9-1.7 0-17.3 8-23.8 12.2-6.8 4.5-19 16.9-22.3 22.8-5.6 10-8.5 17.2-9.4 23-.2 1.9-1.1 4.4-1.8 5.5-1 1.4-1.4 5.3-1.4 13 0 12.2 2 20.1 6.6 26.2 1.3 1.7 2.4 3.5 2.4 3.9 0 1.1 5.2 6.4 6.3 6.4.4 0 2.3 1.1 4 2.4 4.8 3.6 16.1 8.1 17.7 7.1.4-.2 1.6.2 2.6 1 2.6 2 20.7 2.1 22.3.2.6-.8 2.3-1.4 3.8-1.5 2.8-.1 6.9-1.9 12.8-5.7 3.9-2.4 10.5-8.6 10.5-9.9 0-.5.7-1.8 1.7-2.8 2.1-2.3 3.7-5.1 6.3-10.8 1.2-2.5 2.5-5.2 3-6.1.5-.9 1.2-3.4 1.6-5.5.3-2.2 1.1-4.5 1.7-5.2 1.9-2.4 2.8-11.6 2.7-26.7-.1-8.3-.3-16.1-.6-17.5-1-4.7-4.6-15.5-5.5-16.4-1.9-2.1-.9-5.6 1.9-6.7 7.1-2.8 33.7-6.8 45.7-6.9 5.4 0 8.6-.5 9.9-1.5 2.9-2.2 64.2-2.2 67 0 1.3 1 4.5 1.5 9 1.6 13.8.1 36 3.5 57.6 8.9 2.5.6 7.2 1.7 10.6 2.3 3.4.7 6.7 1.7 7.5 2.3.8.6 3.4 1.4 5.9 1.8 3.7.6 15.5 4.2 24.5 7.5 1.1.4 7.4 2.5 14 4.6 14.4 4.5 13.6 4.3 15.5 5.4.8.5 3.5 1.5 6 2.2 2.5.7 5.9 2.1 7.6 3.1 1.7 1 4 1.8 5.1 1.8 1 0 2.8.7 3.9 1.5 1 .8 2.8 1.5 3.9 1.5 1.2 0 2.5.4 3 .9.6.5 5.1 2.6 10 4.6 11 4.5 14.5 6.5 14.5 8.2 0 .8-.8 1.6-1.7 1.9-1 .3-2.7.9-3.8 1.3-4.1 1.6-9.1 3.3-12 4.1-1.6.5-5.2 1.6-8 2.5-16.2 5.2-20.6 6.5-21.7 6.5-.7 0-2.4.6-3.8 1.3-1.4.7-5.9 2.3-10 3.6-4.1 1.3-8.2 2.7-9.1 3.1-.9.5-3.8 1.2-6.5 1.6-2.7.4-5.8 1.3-6.9 2-1.1.8-2.9 1.4-4.1 1.4-1.2 0-3.8.7-5.7 1.5-2 .8-4.9 1.5-6.5 1.5-1.5 0-3.3.5-4 1.2-3.4 3.4-37.8 5.6-48.4 3-2.7-.6-7.3-2.3-10.3-3.7-3.1-1.4-6.2-2.5-6.9-2.5-.7 0-2.4-.8-3.7-1.8-3.3-2.4-6-4-8.4-5.1-2-1-15.2-9.3-17-10.8-.5-.5-3.5-2.4-6.5-4.3-3-1.8-6.2-4-7-4.7-6.1-5.6-20.6-14.3-23.8-14.3-.9 0-2.6-.7-3.6-1.5-5.8-4.4-29.3 1.1-35.8 8.3-5 5.7-6.8 11.5-6.8 22.2 0 11.1.4 13 3 13 1.6 0 1.9-1.2 2.2-10.8.4-12.9 2.1-16.4 10-20.2 6.8-3.2 16.7-2.5 26.4 2 3.8 1.8 7.1 3.6 7.4 4 .3.4 2.1 1.5 4 2.4 1.9.9 5.2 3.2 7.4 5.1 2.1 1.9 4.4 3.5 5.2 3.5.8 0 1.4.4 1.4.8 0 .5 3.9 3.7 8.8 7.2 13.4 9.9 17.5 12.7 20 13.4 1.2.4 2.2 1.2 2.2 1.7s.6.9 1.3.9c.6.1 3 .9 5.2 2s4.9 1.9 6.1 2c1.1 0 2.5.5 3.2 1.2 1.5 1.5 34.6 1.5 36.5 0 .7-.5 3.2-1.2 5.7-1.5 2.5-.4 6.5-1.1 9-1.7 2.5-.6 6.3-1.3 8.5-1.7 2.2-.3 4.5-.9 5-1.4.6-.4 3.1-1.1 5.5-1.5 2.4-.4 5.5-1.3 6.9-2.1 1.4-.7 3.6-1.3 4.7-1.3 1.2 0 3.8-.7 5.7-1.5 2-.8 4.7-1.5 6.1-1.5 1.3 0 3.7-.6 5.3-1.4 3.1-1.7 16.9-6 22.3-7.1 1.9-.4 4.9-1.3 6.5-2 2.7-1.1 5.8-2.2 21-7.1 2.8-.9 5.9-1.9 7-2.4 1.1-.4 5.4-1.8 9.5-3s8.3-2.6 9.2-3.1c1-.5 3-.9 4.4-.9 2.5 0 12.6 4.6 20.4 9.2 1.9 1.1 9.9 5.9 17.8 10.6 10 6 14.2 9 14 10.1-.4 1.9-6.7 5.1-11.7 5.8-2 .3-4.3 1.1-5.1 1.9-1.5 1.2-3.3 2-16 6.5-3.6 1.3-8.7 3.3-11.5 4.6-2.7 1.3-6.7 2.6-8.7 3-2.1.3-4.3 1.2-4.9 1.9-.6.8-2 1.4-3 1.4s-3.5.7-5.6 1.6c-6.4 2.8-7.7 3.3-11 3.9-1.7.3-3.7 1.3-4.4 2.1-.6.8-2 1.4-3 1.4s-3.6.6-5.6 1.3c-9.3 3.4-11 3.9-13.8 4.7-1.6.5-6.1 2-9.9 3.4-3.8 1.4-7.9 2.6-9.1 2.6-1.3 0-2.8.7-3.5 1.5-.7.8-1.9 1.5-2.7 1.5-1.3 0-21.4 6.3-25.8 8.1-1.1.4-5.1 1.8-9 3-3.8 1.2-7.9 2.5-9 2.9-4.7 1.9-12.2 4.2-15 4.7-1.6.3-3.4.9-4 1.3-.5.5-2.8 1.1-5 1.5-2.2.4-4.9 1.3-6.1 2-1.1.7-4.2 1.6-6.7 2-2.6.4-5 1.1-5.3 1.6-.3.5-1.6.9-2.8.9-1.3 0-3.7.7-5.2 1.5-1.6.8-4.5 1.5-6.5 1.5s-4.2.6-4.8 1.4c-.7.8-2.8 1.7-4.9 2.1-4.1.7-9 2.1-14.2 4.1-1.9.7-5.7 1.6-8.5 2-2.7.4-5.4 1-6 1.3-1.7 1.1-7.6 2.9-14 4.1-3.3.7-6.9 1.6-8 2-2.1.9-7.4 2.1-11.3 2.6-1.3.1-2.8.7-3.5 1.2-.7.5-3 1.2-5.2 1.6-15.2 2.2-19.2 2.9-21 3.9-1.1.6-6 1.7-11 2.4-4.9.8-11.2 1.8-14 2.3-2.7.5-7.5 1.4-10.5 1.9-3 .6-8.1 1.4-11.3 1.7-3.2.4-6 1.1-6.3 1.5-.3.5-3.8.9-7.8.9-3.9 0-7.6.4-8.1.9-1.6 1.5-44.5 2.3-60 1.1-7.7-.6-16.9-1.3-20.5-1.6-3.6-.3-7.4-.9-8.5-1.4-1.1-.5-4-1.1-6.5-1.3-11.6-1.1-37.4-9.6-48.1-15.8-2.5-1.5-5.7-3-7-3.4-1.3-.4-4.2-1.9-6.4-3.4-2.2-1.4-5.6-3.4-7.5-4.4-1.9-1.1-5-3.1-6.7-4.6-1.8-1.4-5.3-4.2-7.9-6.1-7.2-5.5-16.4-14.2-16.4-15.5 0-.7-1.6-2.7-3.5-4.6-1.9-1.9-3.5-3.9-3.5-4.5 0-.6-.7-1.7-1.5-2.4-1.4-1.1-7.6-13.4-11-21.5-2.9-7.3-3.8-15.7-3.8-36.5-.1-14.9.4-22.5 1.5-28 1.8-8.5 6.2-20.7 8.4-23.1.8-.8 1.4-2 1.4-2.6 0-2.6 8-15.4 15.9-25.3C50 65.6 63 54.4 73.5 47.5c7-4.7 26.3-14.5 28.3-14.5.8 0 2.6-.6 4-1.4 4.1-2.2 12.2-4.6 15.7-4.6 1.7 0 4-.7 5.1-1.5 2.8-2.1 28-2.1 30.8 0zm83.7 54.8c4.1 5.7 5.1 11.5 5.1 29.7 0 18.1 0 18.3-5 30.5-4.4 10.9-16.8 23.2-29.6 29.5-8.6 4.3-9.1 4.4-18.5 4.3-11.5 0-16.2-1.8-24.3-9.2l-5.3-4.9v-27.7l4-7.5c5.7-10.7 10.8-16.8 20-23.6C197.1 94.2 221.3 82 226 82c.9 0 2-.3 2.4-.8 1.1-1.1 6.8-3 9.1-3.1 1.1 0 2.7 1 3.6 2.2zm455.1 11.5c2 1.5 6.4 4.8 9.8 7.4 3.3 2.7 6.3 4.8 6.6 4.8.3 0 4.1 2.6 8.3 5.8 4.2 3.2 8.6 6.4 9.9 7.1 1.2.6 2.2 1.9 2.2 2.9 0 1.8-5.1 5.2-7.7 5.2-.8 0-2.7.7-4.1 1.5-1.5.8-6.3 2.8-10.7 4.5-7.8 3.1-14.8 5.9-21.2 8.6-1.7.8-3.7 1.4-4.5 1.4-.8 0-1.8.4-2.3.8-.6.5-3.7 1.9-7 3.2-3.3 1.3-6.4 2.7-6.9 3.2-.6.4-1.6.8-2.4.8-1.4 0-5.2 1.6-14 5.8-3.2 1.5-3.3 1.5-10-3-11.2-7.5-15.5-10.1-20.7-12.8-2.8-1.4-6.4-3.4-8-4.6-1.7-1.1-3.9-2.4-5-2.8-5.7-2-9.5-4.3-10.1-5.9-.8-2.4-.4-2.7 4.2-3.4 2.2-.3 4.6-1.2 5.5-1.9.8-.8 3-1.7 4.7-2 1.8-.4 3.5-1.1 3.8-1.5.3-.5 1.6-.9 2.9-.9 1.3 0 3.7-.7 5.4-1.5 1.7-.8 4.5-2.2 6.2-3 1.7-.8 3.9-1.5 4.9-1.5 1 0 2.1-.4 2.4-.9.4-.5 2.4-1.2 4.5-1.6 2.2-.4 4.5-1.3 5.2-2.1.6-.8 1.9-1.4 2.8-1.4 2 0 12.3-3.8 13.6-5.1.5-.5 1.8-.9 2.8-.9 1 0 3.1-.6 4.5-1.4 6.7-3.4 12.1-5.6 14-5.6 1.1 0 2.4-.5 2.7-1 1-1.7 3.8-1.1 7.7 1.8zm532.1 27.4c13.1 8.9 16.3 28.3 7.7 46-10.1 20.5-34.1 40.4-59.4 49.2l-6.5 2.3-2.1-2.2c-1.1-1.2-2-2.9-2-3.9 0-.9-.6-2.9-1.4-4.4-2-4-2.7-9.1-2.6-19.5.1-22 7-41.5 19.2-53.9 7.2-7.3 9.8-9.2 18.7-13.6 5.7-2.8 7.4-3.2 15-3.2 8 0 8.9.2 13.4 3.2zm-462.5 20.4c6.6 3.6 14.9 8.3 21.8 12.4 3.3 2 7.9 4.4 10.4 5.5 2.5 1 5.2 2.4 6 3 .8.6 2.8 1.7 4.3 2.3 5.8 2.5 2.2 4.8-16.3 10.9-2.5.8-5.3 1.9-6.2 2.4-.9.4-5.9 2.5-11 4.4-5.1 2-10.2 4-11.3 4.5-8.2 3.6-11.9 5-13 5-.7 0-1.8.7-2.5 1.5s-2.1 1.5-3.1 1.5-3.3.9-5.1 1.9c-1.8 1.1-6.4 3.1-10.3 4.6-3.8 1.5-7.4 3.1-8 3.6-2 1.9-5.7.8-9.9-3.1-2.4-2.2-4.7-4-5.1-4-.4 0-2.5-1.5-4.6-3.3-2.1-1.7-5.6-4.6-7.9-6.2-2.2-1.7-4.6-3.5-5.3-4-.6-.6-4-2.8-7.4-5-7.4-4.7-8.4-7.8-3-9.4 2.8-.8 7.7-2.7 15.9-5.9 1.4-.6 2.9-1.6 3.3-2.1.3-.6 1.6-1.1 2.8-1.1 1.2 0 3.1-.7 4.1-1.5 1.1-.8 3.1-1.5 4.5-1.5 1.3 0 3.2-.6 4-1.3.9-.7 5.4-2.7 10.1-4.5 4.7-1.8 9.9-3.9 11.5-4.6 1.7-.8 4.8-2 7-2.9 2.2-.8 6.3-2.4 9-3.6 6.6-2.7 9.6-2.6 15.3.5zm-48.6 76.1c1.4 1.6 4.3 6.2 6.4 10.3 3.5 7.1 3.7 8 3.8 17 0 8.3-.3 10.1-2.5 13.9-1.3 2.4-3 5.4-3.7 6.7-1.4 2.6-4.1 4.6-12 9.3-4.8 2.8-6 3.1-14 3.1-6.1-.1-9.3-.5-10.6-1.5-1.1-.8-2.6-1.5-3.4-1.5-.7 0-3.5-2.4-6.2-5.2-4.2-4.5-5-6-5.6-10.6-.7-6.1.6-11.6 3.9-16.5 3.1-4.4 8.9-10.7 9.9-10.7.4 0 2.9-1.6 5.5-3.6 3.9-3 23.4-13.3 25.4-13.4.3 0 1.7 1.2 3.1 2.7z"/></svg>