<?xml version="1.0" standalone="no"?>
<!DOCTYPE svg PUBLIC "-//W3C//DTD SVG 20010904//EN"
 "http://www.w3.org/TR/2001/REC-SVG-20010904/DTD/svg10.dtd">
<svg version="1.0" xmlns="http://www.w3.org/2000/svg"
 width="1000.000000pt" height="1000.000000pt" viewBox="0 0 1000.000000 1000.000000"
 preserveAspectRatio="xMidYMid meet">
<metadata>
Created by potrace 1.11, written by Peter Selinger 2001-2013
</metadata>
<g transform="translate(0.000000,1000.000000) scale(0.100000,-0.100000)"
fill="#000000" stroke="none">
<path d="M1550 9464 c-287 -42 -483 -132 -667 -307 -169 -160 -288 -378 -334
-612 -21 -105 -21 -6995 0 -7100 43 -216 145 -415 294 -572 160 -169 378 -288
612 -334 105 -21 6995 -21 7100 0 352 70 645 291 802 606 47 93 84 201 104
300 21 105 21 6995 0 7100 -21 106 -58 210 -112 315 -153 299 -415 499 -768
587 -61 16 -333 17 -3536 19 -1908 1 -3481 0 -3495 -2z m2932 -1553 c75 -36
134 -94 170 -169 45 -91 45 -171 2 -292 -34 -93 -2343 -5075 -2401 -5179 -47
-84 -105 -146 -168 -179 -45 -24 -61 -27 -155 -27 -121 0 -166 16 -248 90
-108 98 -139 228 -88 378 29 86 2374 5129 2426 5218 60 100 106 142 190 173
66 24 209 17 272 -13z m2515 -516 c102 -30 177 -108 215 -224 21 -62 22 -89
28 -477 l5 -411 365 117 c402 129 478 147 555 130 106 -24 198 -97 246 -198
34 -72 38 -207 9 -286 -30 -78 -93 -140 -191 -188 -42 -20 -227 -85 -410 -144
-184 -59 -337 -111 -342 -114 -4 -4 87 -138 203 -299 224 -310 269 -382 295
-472 40 -141 -42 -310 -187 -386 -49 -26 -62 -28 -163 -28 -182 0 -201 17
-521 456 -205 282 -219 298 -235 282 -9 -10 -113 -151 -232 -313 -118 -162
-237 -316 -264 -342 -71 -69 -129 -92 -233 -92 -110 0 -186 32 -260 110 -74
78 -94 129 -95 239 0 87 1 93 43 171 23 44 139 213 257 374 140 193 210 297
202 301 -7 4 -156 53 -332 110 -457 146 -502 167 -572 266 -101 142 -78 339
54 464 92 87 178 111 303 85 41 -9 233 -67 425 -129 l350 -113 6 396 c6 410
12 468 55 553 21 41 91 114 129 134 82 44 201 55 292 28z"/>
</g>
</svg>
