<?xml version="1.0" standalone="no"?>
<!DOCTYPE svg PUBLIC "-//W3C//DTD SVG 20010904//EN"
 "http://www.w3.org/TR/2001/REC-SVG-20010904/DTD/svg10.dtd">
<svg version="1.0" xmlns="http://www.w3.org/2000/svg"
 width="600.000000pt" height="600.000000pt" viewBox="0 0 600.000000 600.000000"
 preserveAspectRatio="xMidYMid meet">
<metadata>
Created by potrace 1.11, written by Peter Selinger 2001-2013
</metadata>
<g transform="translate(0.000000,600.000000) scale(0.100000,-0.100000)"
fill="#000000" stroke="none">
<path d="M3708 5843 c7 -3 16 -2 19 1 4 3 -2 6 -13 5 -11 0 -14 -3 -6 -6z"/>
<path d="M3778 5843 c6 -2 18 -2 25 0 6 3 1 5 -13 5 -14 0 -19 -2 -12 -5z"/>
<path d="M3865 5816 c69 -32 139 -97 160 -148 12 -29 20 -80 23 -154 5 -132
-16 -233 -77 -359 -21 -44 -195 -327 -386 -630 -191 -302 -439 -694 -550 -870
-111 -176 -363 -574 -560 -885 -458 -722 -457 -721 -451 -727 2 -3 211 61 463
142 252 81 571 183 708 227 138 44 318 101 400 128 184 60 268 80 348 81 38 1
53 4 39 7 -22 7 -20 13 71 157 143 228 558 887 820 1300 148 234 192 341 203
489 7 97 -13 208 -50 270 -14 24 -82 90 -166 161 -78 66 -212 181 -298 255
-87 74 -213 182 -282 239 -69 58 -160 134 -202 170 -110 95 -175 144 -210 158
-53 22 -55 14 -3 -11z"/>
<path d="M3545 5815 c-25 -12 -26 -14 -5 -9 28 7 60 23 45 23 -5 0 -23 -6 -40
-14z"/>
<path d="M3430 5770 c-8 -5 -10 -10 -5 -10 6 0 17 5 25 10 8 5 11 10 5 10 -5
0 -17 -5 -25 -10z"/>
<path d="M2080 5195 c-14 -8 -20 -14 -15 -14 6 0 21 6 35 14 14 8 21 14 15 14
-5 0 -21 -6 -35 -14z"/>
<path d="M1905 5120 c-3 -5 -1 -10 4 -10 6 0 11 5 11 10 0 6 -2 10 -4 10 -3 0
-8 -4 -11 -10z"/>
<path d="M1860 5100 c-9 -6 -10 -10 -3 -10 6 0 15 5 18 10 8 12 4 12 -15 0z"/>
<path d="M1120 4782 c-75 -38 -190 -120 -190 -136 0 -5 15 4 33 21 17 17 64
49 102 71 85 51 101 61 95 61 -3 0 -21 -8 -40 -17z"/>
<path d="M870 4588 c-45 -55 -110 -183 -110 -215 1 -10 9 5 19 32 29 80 52
120 134 223 5 6 7 12 5 12 -2 0 -24 -24 -48 -52z"/>
<path d="M2500 4500 c-386 -157 -1389 -551 -1430 -563 -31 -9 -81 -19 -111
-23 -47 -5 -62 -3 -105 19 -59 30 -81 53 -100 104 -7 21 -13 30 -14 19 0 -30
40 -92 73 -111 18 -10 48 -31 67 -47 19 -15 39 -28 44 -28 5 0 24 -11 42 -25
18 -14 37 -25 42 -25 4 0 26 -13 48 -30 21 -16 43 -30 47 -30 5 0 23 -10 40
-22 17 -13 39 -27 48 -33 10 -5 57 -35 106 -65 113 -71 125 -78 143 -86 8 -4
17 -10 20 -13 3 -3 21 -15 40 -25 19 -11 78 -47 130 -81 134 -86 166 -105 178
-105 6 0 27 28 48 63 21 34 61 98 90 142 28 44 123 193 209 330 142 224 364
573 403 633 18 27 7 28 -58 2z"/>
<path d="M733 4170 c0 -41 2 -58 4 -37 2 20 2 54 0 75 -2 20 -4 3 -4 -38z"/>
<path d="M1715 3167 c-49 -78 -95 -153 -103 -167 l-14 -25 18 23 c28 32 196
303 192 307 -2 2 -44 -60 -93 -138z"/>
<path d="M1504 2833 c-85 -132 -86 -133 -81 -133 3 0 36 48 74 108 81 125 86
132 80 132 -3 0 -36 -48 -73 -107z"/>
<path d="M1354 2598 c-15 -24 -53 -83 -84 -133 -54 -85 -214 -338 -274 -432
-14 -24 -24 -43 -21 -43 5 0 20 23 183 280 154 243 233 370 227 370 -3 0 -17
-19 -31 -42z"/>
<path d="M4080 2610 c34 -11 60 -11 35 0 -11 5 -29 8 -40 8 -16 0 -15 -2 5 -8z"/>
<path d="M4140 2596 c0 -2 7 -7 16 -10 8 -3 12 -2 9 4 -6 10 -25 14 -25 6z"/>
<path d="M4250 2520 c115 -115 132 -445 34 -648 -34 -69 -111 -165 -177 -220
-71 -58 -205 -124 -340 -167 -113 -35 -2277 -653 -2611 -746 -181 -50 -257
-59 -313 -39 l-28 10 25 -20 c14 -11 34 -22 45 -26 26 -8 216 -91 380 -167 72
-32 159 -72 195 -88 36 -16 73 -34 82 -39 10 -6 22 -10 28 -10 6 0 65 -27 133
-59 180 -87 326 -148 379 -160 57 -13 141 -3 273 33 103 28 277 74 415 110
128 33 880 232 1165 307 127 34 277 74 335 89 659 173 675 177 785 230 259
126 366 293 366 570 -1 172 -38 288 -117 362 -16 14 -126 89 -244 167 -118 77
-220 145 -226 150 -7 5 -79 53 -160 107 -82 53 -207 136 -279 183 -71 47 -142
91 -157 98 -24 10 -22 7 12 -27z"/>
<path d="M943 1948 c-15 -20 -25 -38 -20 -38 3 0 12 11 21 25 17 26 16 35 -1
13z"/>
<path d="M841 1790 c-39 -60 -93 -148 -120 -196 -49 -85 -112 -239 -110 -272
0 -9 13 22 29 70 37 112 63 162 175 338 109 172 107 170 102 170 -3 0 -37 -49
-76 -110z"/>
<path d="M601 1288 c0 -9 -4 -25 -7 -35 -5 -17 -5 -17 6 0 6 10 9 25 7 35 -4
15 -5 15 -6 0z"/>
<path d="M592 1190 c0 -14 2 -19 5 -12 2 6 2 18 0 25 -3 6 -5 1 -5 -13z"/>
<path d="M582 1100 c0 -19 2 -27 5 -17 2 9 2 25 0 35 -3 9 -5 1 -5 -18z"/>
<path d="M595 992 c5 -69 42 -149 95 -206 24 -25 46 -46 50 -46 3 0 -12 20
-35 44 -50 52 -91 134 -105 208 l-9 53 4 -53z"/>
</g>
</svg>
