<svg xmlns="http://www.w3.org/2000/svg" viewBox="0 0 400 400"><path d="M186.8 2.044c-18.622 1.199-40.325 5.825-56.4 12.023-17.331 6.683-39.944 19.051-49.4 27.02-.22.186-1.75 1.401-3.4 2.702C51.728 64.181 30.409 91.642 18.28 120.2c-4.043 9.518-5.21 12.693-8.697 23.648-.844 2.651-4.056 15.662-4.383 17.752-.189 1.21-.711 4.36-1.16 7-1.492 8.777-2.616 22.274-2.6 31.2.031 17.043 2.937 38.126 7.359 53.4a315.57 315.57 0 011.191 4.2c.178.66.766 2.46 1.307 4 .541 1.54 1.486 4.24 2.1 6C34.948 329.193 90.804 378.72 155.2 393.138c39.792 8.91 80.568 5.848 117.6-8.829 16.042-6.358 38.733-19.2 47.853-27.081.909-.785 2.345-1.968 3.191-2.628 12.115-9.449 27.316-25.459 37.041-39.012 2.8-3.902 9.115-13.417 9.115-13.734 0-.077.93-1.74 2.067-3.697 2.222-3.825 6.298-11.817 8.342-16.357.694-1.54 1.507-3.34 1.807-4 7.874-17.313 13.076-38.903 15.418-64 2.31-24.739-2.863-60.421-12.118-83.6-.439-1.1-.942-2.36-1.116-2.8a93.593 93.593 0 00-.959-2.26c-.353-.804-.641-1.568-.641-1.699 0-.688-6.934-15.059-9.223-19.118a1275.884 1275.884 0 01-3.102-5.523c-1.448-2.603-5.739-9.175-9.01-13.8-11.897-16.821-30.131-35.041-46.931-46.893C288.686 19.87 259.586 8.228 228.8 3.808c-14.32-2.055-28.323-2.643-42-1.764m17.512 76.311c2.367 1.207 113.685 75.506 115.024 76.771 1.245 1.178 2.172 2.764 2.717 4.651.485 1.678.46 78.854-.026 80.537-1.171 4.055 3.979.373-62.098 44.401-60.697 40.443-56.808 38.078-61.754 37.567-2.072-.214-6.91-2.998-14.375-8.273-.88-.621-24.278-16.223-51.995-34.67-27.717-18.446-50.977-34.156-51.688-34.909-2.92-3.095-2.705.229-2.823-43.766-.113-42.423-.157-41.454 2.019-44.347 1.593-2.118 114.437-77.551 117.469-78.524 2.303-.74 5.436-.506 7.53.562M165.4 123.436a18080.948 18080.948 0 01-40.88 27.281c-9.504 6.316-17.284 11.663-17.288 11.883-.004.22 8.182 5.846 18.191 12.502l18.199 12.102 22.789-15.246 22.789-15.246v-24.556c0-13.506-.045-24.547-.1-24.537-.055.01-10.72 7.128-23.7 15.817m45.006 8.664c.003 13.255.138 24.3.3 24.544 1.09 1.645 45.281 30.434 46.067 30.011 2.462-1.325 35.603-23.716 35.604-24.055 0-.22-4.899-3.65-10.888-7.622s-24.262-16.167-40.607-27.1S210.992 108 210.782 108c-.238 0-.38 9.055-.376 24.1m-29.316 55.387c-14.652 9.814-18.208 12.363-17.8 12.757.484.468 29.98 20.276 34.469 23.147l2.124 1.359 17.925-11.964c9.858-6.58 18.061-12.013 18.228-12.075 1.134-.415-.77-1.932-11.436-9.11-19.509-13.13-24.468-16.402-24.844-16.39-.196.007-8.596 5.531-18.666 12.276M98.308 200.03c.06 9.477.246 17.172.415 17.101 1.49-.636 25.27-16.882 25.248-17.249-.03-.501-24.667-17.093-25.371-17.086-.262.002-.363 5.944-.292 17.234m201.55-16.923c-.105.169-5.593 3.904-12.197 8.3-6.603 4.396-12.019 8.195-12.034 8.441-.02.331 21.476 14.997 25.073 17.106.397.233.5-3.262.5-16.93 0-17.218-.132-18.876-1.342-16.917M126.2 224.232c-9.24 6.248-17.399 11.688-18.132 12.089-1.671.915-6.952-2.842 40.344 28.691L189 292.072l.103-24.318c.081-19.129-.004-24.419-.4-24.786-.277-.257-6.353-4.391-13.503-9.187a14935.38 14935.38 0 01-22.097-14.851c-5.003-3.371-9.323-6.114-9.6-6.094-.277.02-8.063 5.148-17.303 11.396m125.8-9.017c-1.87 1.285-11.95 8.077-22.4 15.095l-19 12.76-.103 24.465c-.057 13.456-.013 24.465.096 24.465.232 0 80.963-53.741 81.696-54.382.508-.445-35.365-24.863-36.402-24.778-.268.021-2.017 1.09-3.887 2.375"/></svg>