<?xml version="1.0" standalone="no"?>
<!DOCTYPE svg PUBLIC "-//W3C//DTD SVG 20010904//EN"
 "http://www.w3.org/TR/2001/REC-SVG-20010904/DTD/svg10.dtd">
<svg version="1.0" xmlns="http://www.w3.org/2000/svg"
 width="1000.000000pt" height="1000.000000pt" viewBox="0 0 1000.000000 1000.000000"
 preserveAspectRatio="xMidYMid meet">
<metadata>
Created by potrace 1.11, written by Peter Selinger 2001-2013
</metadata>
<g transform="translate(0.000000,1000.000000) scale(0.100000,-0.100000)"
fill="#000000" stroke="none">
<path d="M3536 7673 c-401 -670 -739 -1234 -751 -1253 -22 -34 -646 -1074
-669 -1115 -6 -11 -47 -80 -91 -153 -44 -73 -87 -145 -96 -160 -9 -15 -49 -81
-89 -147 -40 -66 -84 -140 -97 -165 -14 -25 -31 -51 -36 -59 -11 -13 -31 -45
-43 -70 -4 -7 -36 -61 -72 -120 -35 -58 -76 -126 -90 -151 -13 -25 -31 -52
-38 -61 -8 -8 -14 -18 -14 -21 0 -3 -76 -133 -170 -288 -93 -156 -170 -287
-170 -291 0 -5 131 -8 292 -6 l291 2 102 170 c56 94 216 361 355 595 139 234
285 479 325 545 39 66 114 192 167 280 52 88 222 374 378 635 156 261 402 675
548 920 146 245 281 472 302 505 20 33 40 67 43 75 4 8 16 29 27 45 11 17 23
37 27 45 4 8 14 26 24 40 9 14 97 160 194 325 98 165 195 328 216 362 22 34
39 67 39 73 0 5 5 10 10 10 6 0 10 5 10 10 0 6 17 39 39 73 73 118 331 554
331 561 0 3 -127 6 -283 6 l-282 0 -729 -1217z"/>
<path d="M6603 8340 c0 -303 -2 -552 -4 -554 -2 -3 -191 130 -419 295 -228
164 -418 295 -422 291 -3 -4 -23 -36 -44 -72 -40 -71 -36 -64 -158 -272 -47
-80 -86 -150 -86 -155 0 -5 219 -118 488 -250 l487 -241 -310 -152 c-170 -83
-390 -190 -487 -238 -98 -48 -178 -90 -178 -95 0 -4 19 -40 41 -80 23 -40 50
-88 61 -107 11 -19 58 -101 105 -182 l85 -147 78 57 c43 31 88 64 100 72 48
33 520 374 583 421 38 28 71 48 74 45 3 -3 6 -245 5 -538 0 -293 2 -540 4
-548 3 -13 44 -15 296 -13 161 1 296 2 300 2 4 1 6 249 5 551 -2 402 1 549 9
546 11 -4 184 -125 194 -136 3 -3 19 -14 35 -26 17 -11 98 -70 180 -129 83
-60 204 -147 270 -194 66 -47 126 -91 133 -98 7 -7 15 -13 17 -13 4 0 165 268
165 275 0 1 32 56 70 121 39 65 70 120 70 123 0 3 -35 23 -78 43 -82 39 -381
184 -706 342 l-199 97 229 113 c126 62 347 171 491 242 184 90 261 133 258
143 -3 7 -70 123 -150 257 l-145 243 -362 -259 c-200 -142 -388 -276 -418
-298 -30 -22 -57 -39 -60 -37 -3 2 -4 251 -3 554 l2 551 -303 0 -303 0 0 -550z"/>
<path d="M7120 5209 c-320 -65 -578 -255 -733 -539 -38 -69 -93 -222 -102
-283 -3 -20 -7 -54 -11 -74 -12 -88 -8 -217 12 -330 l6 -31 -49 3 c-70 4 -178
15 -201 20 -11 2 -42 7 -69 11 -56 8 -54 7 -158 29 -135 28 -367 97 -442 131
-17 8 -34 14 -38 14 -11 0 -257 111 -271 121 -6 5 -42 25 -80 45 -102 53 -304
189 -424 284 -108 87 -372 343 -404 393 -10 15 -22 27 -27 27 -11 0 -61 -98
-84 -165 -111 -321 -65 -663 126 -941 46 -66 143 -170 197 -211 13 -10 36 -28
50 -41 l27 -23 -53 6 c-77 8 -121 15 -178 30 -61 16 -181 63 -209 81 -11 8
-22 14 -26 14 -11 0 7 -191 25 -255 1 -5 8 -30 15 -55 21 -78 80 -199 138
-288 43 -64 168 -195 228 -238 22 -16 42 -31 45 -34 28 -28 219 -117 304 -141
86 -25 85 -28 -22 -45 -61 -10 -263 -11 -324 -2 l-46 7 23 -58 c76 -187 212
-359 375 -473 116 -82 293 -154 425 -174 28 -5 53 -9 58 -10 4 -1 28 -2 53 -3
25 0 43 -5 40 -10 -24 -38 -348 -223 -511 -292 -41 -17 -235 -78 -264 -82 -16
-3 -33 -7 -38 -10 -4 -3 -26 -8 -48 -11 -22 -3 -62 -10 -90 -16 -130 -24 -409
-34 -523 -19 -31 4 -58 6 -60 5 -2 -2 25 -21 60 -41 35 -21 74 -45 88 -54 14
-8 27 -16 30 -16 3 -1 46 -21 95 -46 318 -159 639 -250 1040 -296 137 -16 589
-8 692 11 10 2 41 7 68 10 28 4 73 11 100 16 28 5 66 12 85 15 19 3 62 13 95
22 33 8 65 16 70 17 31 7 110 31 175 53 335 113 680 307 935 526 72 62 263
252 324 322 238 276 463 673 577 1024 31 93 81 275 89 320 3 19 8 37 10 41 2
3 7 29 10 56 4 27 10 67 15 89 5 22 12 76 16 120 4 44 8 94 10 110 2 17 4 98
5 180 l2 150 87 69 c141 111 266 239 378 389 28 38 52 72 52 74 0 2 -17 -4
-37 -13 -119 -52 -377 -123 -508 -139 l-50 -6 55 38 c150 102 274 248 353 415
60 126 61 125 -27 79 -156 -83 -327 -148 -505 -190 l-84 -20 -42 37 c-78 70
-100 87 -165 128 -110 68 -250 125 -349 140 -18 3 -43 8 -55 11 -56 13 -275 8
-356 -8z"/>
</g>
</svg>
