<?xml version="1.0" standalone="no"?>
<!DOCTYPE svg PUBLIC "-//W3C//DTD SVG 20010904//EN"
 "http://www.w3.org/TR/2001/REC-SVG-20010904/DTD/svg10.dtd">
<svg version="1.0" xmlns="http://www.w3.org/2000/svg"
 width="700.000000pt" height="700.000000pt" viewBox="0 0 700.000000 700.000000"
 preserveAspectRatio="xMidYMid meet">
<metadata>
Created by potrace 1.11, written by Peter Selinger 2001-2013
</metadata>
<g transform="translate(0.000000,700.000000) scale(0.100000,-0.100000)"
fill="#000000" stroke="none">
<path d="M0 5055 l0 -1945 3500 0 3500 0 0 390 0 390 -1555 0 -1555 0 0 385 0
385 1555 0 1555 0 0 395 0 395 -1555 0 -1555 0 0 385 0 385 1555 0 1555 0 0
390 0 390 -3500 0 -3500 0 0 -1945z"/>
<path d="M0 1945 l0 -395 3500 0 3500 0 0 395 0 395 -3500 0 -3500 0 0 -395z"/>
<path d="M0 390 l0 -390 3500 0 3500 0 0 390 0 390 -3500 0 -3500 0 0 -390z"/>
</g>
</svg>
